<?xml version="1.0" encoding="UTF-8" standalone="no"?>
<!DOCTYPE svg PUBLIC "-//W3C//DTD SVG 1.1//EN"
 "http://www.w3.org/Graphics/SVG/1.1/DTD/svg11.dtd">
<!-- Generated by graphviz version 2.40.1 (20161225.0304)
 -->
<!-- Title: state transitions Pages: 1 -->
<svg width="940pt" height="670pt"
 viewBox="0.00 0.00 940.14 670.00" xmlns="http://www.w3.org/2000/svg" xmlns:xlink="http://www.w3.org/1999/xlink">
<g id="graph0" class="graph" transform="scale(1 1) rotate(0) translate(4 666)">
<title>state transitions</title>
<polygon fill="#ffffff" stroke="transparent" points="-4,4 -4,-666 936.145,-666 936.145,4 -4,4"/>
<g id="clust1" class="cluster">
<title>cluster_current_state</title>
<path fill="none" stroke="#000000" stroke-width="2" d="M20,-8C20,-8 854,-8 854,-8 860,-8 866,-14 866,-20 866,-20 866,-642 866,-642 866,-648 860,-654 854,-654 854,-654 20,-654 20,-654 14,-654 8,-648 8,-642 8,-642 8,-20 8,-20 8,-14 14,-8 20,-8"/>
<text text-anchor="start" x="401.9906" y="-635.2" font-family="Helvetica,sans-Serif" font-size="12.00" fill="#000000">current_state</text>
</g>
<!-- current_state -->
<!-- WAIT_FOR_DATA -->
<g id="node2" class="node">
<title>WAIT_FOR_DATA</title>
<polygon fill="transparent" stroke="transparent" stroke-width="2" points="313,-616 191,-616 191,-580 313,-580 313,-616"/>
<text text-anchor="start" x="201.6678" y="-594.2" font-family="Helvetica,sans-Serif" font-size="12.00" fill="#000000">WAIT_FOR_DATA</text>
<path fill="none" stroke="#000000" stroke-width="2" d="M203.3333,-581C203.3333,-581 300.6667,-581 300.6667,-581 306.3333,-581 312,-586.6667 312,-592.3333 312,-592.3333 312,-603.6667 312,-603.6667 312,-609.3333 306.3333,-615 300.6667,-615 300.6667,-615 203.3333,-615 203.3333,-615 197.6667,-615 192,-609.3333 192,-603.6667 192,-603.6667 192,-592.3333 192,-592.3333 192,-586.6667 197.6667,-581 203.3333,-581"/>
</g>
<!-- WAIT_FOR_DATA&#45;&gt;WAIT_FOR_DATA -->
<g id="edge4" class="edge">
<title>WAIT_FOR_DATA&#45;&gt;WAIT_FOR_DATA</title>
<path fill="none" stroke="#000000" d="M313.1684,-602.7036C325.8678,-602.2085 335,-600.6406 335,-598 335,-596.1433 330.4852,-594.817 323.39,-594.021"/>
<polygon fill="#000000" stroke="#000000" points="323.3909,-590.5124 313.1684,-593.2964 322.8959,-597.4948 323.3909,-590.5124"/>
<text text-anchor="start" x="335" y="-607" font-family="Helvetica,sans-Serif" font-size="10.00" fill="#000000">not (data_in == 2&#39;b00) &#160;&#160;</text>
<text text-anchor="start" x="335" y="-595" font-family="Helvetica,sans-Serif" font-size="10.00" fill="#000000">not (data_in == 2&#39;b01) &#160;&#160;</text>
<text text-anchor="start" x="335" y="-583" font-family="Helvetica,sans-Serif" font-size="10.00" fill="#000000">not (data_in == 2&#39;b10) &#160;&#160;</text>
</g>
<!-- DETECTED_0 -->
<g id="node3" class="node">
<title>DETECTED_0</title>
<polygon fill="transparent" stroke="transparent" stroke-width="2" points="564,-534 464,-534 464,-498 564,-498 564,-534"/>
<text text-anchor="start" x="475" y="-512.2" font-family="Helvetica,sans-Serif" font-size="12.00" fill="#000000">DETECTED_0</text>
<path fill="none" stroke="#000000" stroke-width="2" d="M476.3333,-499C476.3333,-499 551.6667,-499 551.6667,-499 557.3333,-499 563,-504.6667 563,-510.3333 563,-510.3333 563,-521.6667 563,-521.6667 563,-527.3333 557.3333,-533 551.6667,-533 551.6667,-533 476.3333,-533 476.3333,-533 470.6667,-533 465,-527.3333 465,-521.6667 465,-521.6667 465,-510.3333 465,-510.3333 465,-504.6667 470.6667,-499 476.3333,-499"/>
</g>
<!-- WAIT_FOR_DATA&#45;&gt;DETECTED_0 -->
<g id="edge1" class="edge">
<title>WAIT_FOR_DATA&#45;&gt;DETECTED_0</title>
<path fill="none" stroke="#000000" d="M280.8113,-579.8881C297.5816,-570.0599 319.4477,-558.4347 340.189,-551 376.821,-537.8693 419.6605,-529.1718 453.643,-523.7312"/>
<polygon fill="#000000" stroke="#000000" points="454.541,-527.134 463.8882,-522.146 453.4706,-520.2163 454.541,-527.134"/>
<text text-anchor="start" x="340" y="-554" font-family="Helvetica,sans-Serif" font-size="10.00" fill="#000000">data_in == 2&#39;b00 &#160;&#160;</text>
</g>
<!-- WAIT_FOR_DATA&#45;&gt;DETECTED_0 -->
<g id="edge3" class="edge">
<title>WAIT_FOR_DATA&#45;&gt;DETECTED_0</title>
<path fill="none" stroke="#000000" d="M313.2241,-589.8261C346.5874,-584.3131 388.2456,-575.6882 424,-563 441.6363,-556.7414 460.123,-547.5907 475.7218,-539.023"/>
<polygon fill="#000000" stroke="#000000" points="477.5363,-542.0183 484.5441,-534.0721 474.1105,-535.9138 477.5363,-542.0183"/>
<text text-anchor="start" x="451" y="-554" font-family="Helvetica,sans-Serif" font-size="10.00" fill="#000000">data_in == 2&#39;b10 &#160;&#160;</text>
</g>
<!-- DETECTED_01 -->
<g id="node4" class="node">
<title>DETECTED_01</title>
<polygon fill="transparent" stroke="transparent" stroke-width="2" points="242,-428 136,-428 136,-392 242,-392 242,-428"/>
<text text-anchor="start" x="146.6646" y="-406.2" font-family="Helvetica,sans-Serif" font-size="12.00" fill="#000000">DETECTED_01</text>
<path fill="none" stroke="#000000" stroke-width="2" d="M148.3333,-393C148.3333,-393 229.6667,-393 229.6667,-393 235.3333,-393 241,-398.6667 241,-404.3333 241,-404.3333 241,-415.6667 241,-415.6667 241,-421.3333 235.3333,-427 229.6667,-427 229.6667,-427 148.3333,-427 148.3333,-427 142.6667,-427 137,-421.3333 137,-415.6667 137,-415.6667 137,-404.3333 137,-404.3333 137,-398.6667 142.6667,-393 148.3333,-393"/>
</g>
<!-- WAIT_FOR_DATA&#45;&gt;DETECTED_01 -->
<g id="edge2" class="edge">
<title>WAIT_FOR_DATA&#45;&gt;DETECTED_01</title>
<path fill="none" stroke="#000000" d="M201.1945,-579.9708C176.0732,-569.315 146.4508,-553.9652 124.189,-534 103.3207,-515.2845 97.9203,-507.8891 90,-481 85.4792,-465.652 82.1168,-458.9232 90,-445 94.3008,-437.404 109.2378,-430.5932 126.2516,-425.0432"/>
<polygon fill="#000000" stroke="#000000" points="127.3305,-428.3732 135.863,-422.0925 125.2761,-421.6815 127.3305,-428.3732"/>
<text text-anchor="start" x="124" y="-513" font-family="Helvetica,sans-Serif" font-size="10.00" fill="#000000">data_in == 2&#39;b01 &#160;&#160;</text>
</g>
<!-- DETECTED_0&#45;&gt;DETECTED_0 -->
<g id="edge5" class="edge">
<title>DETECTED_0&#45;&gt;DETECTED_0</title>
<path fill="none" stroke="#000000" d="M564.1354,-518.404C576.6477,-518.2359 586,-517.4346 586,-516 586,-514.9913 581.3764,-514.2957 574.2816,-513.9131"/>
<polygon fill="#000000" stroke="#000000" points="574.2399,-510.4102 564.1354,-513.596 574.0211,-517.4068 574.2399,-510.4102"/>
<text text-anchor="start" x="586" y="-513" font-family="Helvetica,sans-Serif" font-size="10.00" fill="#000000">data_in == 2&#39;b00 &#160;&#160;</text>
</g>
<!-- DETECTED_0&#45;&gt;DETECTED_0 -->
<g id="edge7" class="edge">
<title>DETECTED_0&#45;&gt;DETECTED_0</title>
<path fill="none" stroke="#000000" d="M564.1881,-520.2037C610.7796,-521.8573 668.811,-520.4561 668.811,-516 668.811,-511.866 618.8639,-510.3612 574.442,-511.4857"/>
<polygon fill="#000000" stroke="#000000" points="574.0775,-507.995 564.1881,-511.7963 574.2895,-514.9918 574.0775,-507.995"/>
<text text-anchor="start" x="668.811" y="-513" font-family="Helvetica,sans-Serif" font-size="10.00" fill="#000000">data_in == 2&#39;b10 &#160;&#160;</text>
</g>
<!-- DETECTED_0&#45;&gt;DETECTED_01 -->
<g id="edge6" class="edge">
<title>DETECTED_0&#45;&gt;DETECTED_01</title>
<path fill="none" stroke="#000000" d="M463.8154,-506.7908C438.1528,-501.1134 406.8034,-492.6568 380.189,-481 353.0217,-469.1011 351.1801,-456.8696 324,-445 301.3856,-435.1243 275.3804,-427.5645 252.2686,-422.042"/>
<polygon fill="#000000" stroke="#000000" points="252.7496,-418.5611 242.2187,-419.7232 251.1758,-425.3819 252.7496,-418.5611"/>
<text text-anchor="start" x="380" y="-460" font-family="Helvetica,sans-Serif" font-size="10.00" fill="#000000">data_in == 2&#39;b01 &#160;&#160;</text>
</g>
<!-- DETECTED_011 -->
<g id="node5" class="node">
<title>DETECTED_011</title>
<polygon fill="transparent" stroke="transparent" stroke-width="2" points="456.5,-134 343.5,-134 343.5,-98 456.5,-98 456.5,-134"/>
<text text-anchor="start" x="354.8292" y="-112.2" font-family="Helvetica,sans-Serif" font-size="12.00" fill="#000000">DETECTED_011</text>
<path fill="none" stroke="#000000" stroke-width="2" d="M355.8333,-99C355.8333,-99 444.1667,-99 444.1667,-99 449.8333,-99 455.5,-104.6667 455.5,-110.3333 455.5,-110.3333 455.5,-121.6667 455.5,-121.6667 455.5,-127.3333 449.8333,-133 444.1667,-133 444.1667,-133 355.8333,-133 355.8333,-133 350.1667,-133 344.5,-127.3333 344.5,-121.6667 344.5,-121.6667 344.5,-110.3333 344.5,-110.3333 344.5,-104.6667 350.1667,-99 355.8333,-99"/>
</g>
<!-- DETECTED_0&#45;&gt;DETECTED_011 -->
<g id="edge8" class="edge">
<title>DETECTED_0&#45;&gt;DETECTED_011</title>
<path fill="none" stroke="#000000" d="M564.1242,-504.996C576.0802,-499.8081 587.3052,-492.1874 594,-481 604.2636,-463.8488 620.6552,-406.5959 607,-392 597.8707,-382.2418 499.7024,-388.1494 487,-384 451.487,-372.3992 448.8389,-356.8147 416,-339 400.0413,-330.3426 388.6645,-337.2775 378.855,-322 343.4284,-266.8259 369.2108,-185.7128 386.9698,-143.6225"/>
<polygon fill="#000000" stroke="#000000" points="390.2529,-144.8502 391.0506,-134.2854 383.8387,-142.0468 390.2529,-144.8502"/>
<text text-anchor="start" x="378" y="-313" font-family="Helvetica,sans-Serif" font-size="10.00" fill="#000000">not (data_in == 2&#39;b00) &#160;&#160;</text>
<text text-anchor="start" x="378" y="-301" font-family="Helvetica,sans-Serif" font-size="10.00" fill="#000000">not (data_in == 2&#39;b01) &#160;&#160;</text>
<text text-anchor="start" x="378" y="-289" font-family="Helvetica,sans-Serif" font-size="10.00" fill="#000000">not (data_in == 2&#39;b10) &#160;&#160;</text>
</g>
<!-- DETECTED_01&#45;&gt;DETECTED_0 -->
<g id="edge9" class="edge">
<title>DETECTED_01&#45;&gt;DETECTED_0</title>
<path fill="none" stroke="#000000" d="M242.1515,-411.7179C311.3417,-414.8041 427.7154,-423.1553 464,-445 480.793,-455.11 493.4253,-473.2642 501.7917,-488.684"/>
<polygon fill="#000000" stroke="#000000" points="498.7939,-490.5104 506.4487,-497.8353 505.0325,-487.3356 498.7939,-490.5104"/>
<text text-anchor="start" x="497" y="-460" font-family="Helvetica,sans-Serif" font-size="10.00" fill="#000000">data_in == 2&#39;b00 &#160;&#160;</text>
</g>
<!-- DETECTED_01&#45;&gt;DETECTED_0 -->
<g id="edge11" class="edge">
<title>DETECTED_01&#45;&gt;DETECTED_0</title>
<path fill="none" stroke="#000000" d="M135.9459,-420.6116C123.1242,-425.7979 110.9075,-433.516 103.189,-445 94.2638,-458.2794 92.3661,-469.2159 103.189,-481 126.4072,-506.2804 345.4622,-513.3263 453.8509,-515.2703"/>
<polygon fill="#000000" stroke="#000000" points="453.9262,-518.772 463.9844,-515.4429 454.0455,-511.773 453.9262,-518.772"/>
<text text-anchor="start" x="103" y="-460" font-family="Helvetica,sans-Serif" font-size="10.00" fill="#000000">data_in == 2&#39;b10 &#160;&#160;</text>
</g>
<!-- DETECTED_01&#45;&gt;DETECTED_01 -->
<g id="edge10" class="edge">
<title>DETECTED_01&#45;&gt;DETECTED_01</title>
<path fill="none" stroke="#000000" d="M242.2553,-414.7786C254.7684,-414.3858 264,-412.793 264,-410 264,-408.0362 259.4361,-406.6657 252.3765,-405.8885"/>
<polygon fill="#000000" stroke="#000000" points="252.4639,-402.3868 242.2553,-405.2214 252.0035,-409.3716 252.4639,-402.3868"/>
<text text-anchor="start" x="264" y="-407" font-family="Helvetica,sans-Serif" font-size="10.00" fill="#000000">data_in == 2&#39;b01 &#160;&#160;</text>
</g>
<!-- DETECTED_0111 -->
<g id="node6" class="node">
<title>DETECTED_0111</title>
<polygon fill="transparent" stroke="transparent" stroke-width="2" points="208,-322 88,-322 88,-286 208,-286 208,-322"/>
<text text-anchor="start" x="98.9938" y="-300.2" font-family="Helvetica,sans-Serif" font-size="12.00" fill="#000000">DETECTED_0111</text>
<path fill="none" stroke="#000000" stroke-width="2" d="M100.3333,-287C100.3333,-287 195.6667,-287 195.6667,-287 201.3333,-287 207,-292.6667 207,-298.3333 207,-298.3333 207,-309.6667 207,-309.6667 207,-315.3333 201.3333,-321 195.6667,-321 195.6667,-321 100.3333,-321 100.3333,-321 94.6667,-321 89,-315.3333 89,-309.6667 89,-309.6667 89,-298.3333 89,-298.3333 89,-292.6667 94.6667,-287 100.3333,-287"/>
</g>
<!-- DETECTED_01&#45;&gt;DETECTED_0111 -->
<g id="edge12" class="edge">
<title>DETECTED_01&#45;&gt;DETECTED_0111</title>
<path fill="none" stroke="#000000" d="M196.4569,-391.7709C201.3597,-376.7898 205.4573,-355.4341 197,-339 195.1688,-335.4415 192.7895,-332.1647 190.0671,-329.1648"/>
<polygon fill="#000000" stroke="#000000" points="192.4014,-326.5558 182.7096,-322.2756 187.617,-331.6655 192.4014,-326.5558"/>
<text text-anchor="start" x="201" y="-366" font-family="Helvetica,sans-Serif" font-size="10.00" fill="#000000">not (data_in == 2&#39;b00) &#160;&#160;</text>
<text text-anchor="start" x="201" y="-354" font-family="Helvetica,sans-Serif" font-size="10.00" fill="#000000">not (data_in == 2&#39;b01) &#160;&#160;</text>
<text text-anchor="start" x="201" y="-342" font-family="Helvetica,sans-Serif" font-size="10.00" fill="#000000">not (data_in == 2&#39;b10) &#160;&#160;</text>
</g>
<!-- DETECTED_011&#45;&gt;WAIT_FOR_DATA -->
<g id="edge16" class="edge">
<title>DETECTED_011&#45;&gt;WAIT_FOR_DATA</title>
<path fill="none" stroke="#000000" d="M343.4278,-121.08C277.3821,-127.5086 175.4117,-139.1752 162,-151 129.9944,-179.2185 155.7662,-209.4285 126,-240 112.8093,-253.5475 101.8627,-245.311 87,-257 74.2836,-267.001 71.8955,-271.3651 65,-286 25.3923,-370.0627 17,-396.5736 17,-489.5 17,-557 17,-557 17,-557 17,-573.8256 111.697,-585.8112 180.8645,-592.3214"/>
<polygon fill="#000000" stroke="#000000" points="180.5913,-595.811 190.87,-593.2421 181.2328,-588.8404 180.5913,-595.811"/>
<text text-anchor="start" x="42" y="-366" font-family="Helvetica,sans-Serif" font-size="10.00" fill="#000000">not (data_in == 2&#39;b00) &#160;&#160;</text>
<text text-anchor="start" x="42" y="-354" font-family="Helvetica,sans-Serif" font-size="10.00" fill="#000000">not (data_in == 2&#39;b01) &#160;&#160;</text>
<text text-anchor="start" x="42" y="-342" font-family="Helvetica,sans-Serif" font-size="10.00" fill="#000000">not (data_in == 2&#39;b10) &#160;&#160;</text>
</g>
<!-- DETECTED_011&#45;&gt;DETECTED_0 -->
<g id="edge13" class="edge">
<title>DETECTED_011&#45;&gt;DETECTED_0</title>
<path fill="none" stroke="#000000" d="M456.5341,-123.0207C493.5111,-128.7247 537.3956,-137.9708 551,-151 556.9964,-156.7429 556,-160.6971 556,-169 556,-248.5 556,-248.5 556,-248.5 556,-285.3129 564.1996,-300.65 594.189,-322 615.3792,-337.0857 691.9211,-320.2983 710,-339 723.8327,-353.3092 715,-363.5978 715,-383.5 715,-463 715,-463 715,-463 715,-492.4242 633.446,-505.8675 574.2343,-511.7503"/>
<polygon fill="#000000" stroke="#000000" points="573.8292,-508.2729 564.2023,-512.697 574.4869,-515.2419 573.8292,-508.2729"/>
<text text-anchor="start" x="594" y="-301" font-family="Helvetica,sans-Serif" font-size="10.00" fill="#000000">data_in == 2&#39;b00 &#160;&#160;</text>
</g>
<!-- DETECTED_011&#45;&gt;DETECTED_01 -->
<g id="edge14" class="edge">
<title>DETECTED_011&#45;&gt;DETECTED_01</title>
<path fill="none" stroke="#000000" d="M343.4986,-119.0469C288.4561,-123.0864 209.7102,-132.0502 186,-151 152.6685,-177.6394 179.0987,-208.7925 150,-240 138.258,-252.5929 129.8507,-247.9728 115.189,-257 97.041,-268.1737 86.474,-266.9095 77,-286 69.8874,-300.3322 66.7199,-309.7395 77,-322 83.96,-330.3008 165.1646,-331.5199 173,-339 184.3993,-349.8825 188.4889,-367.0145 189.6855,-381.7231"/>
<polygon fill="#000000" stroke="#000000" points="186.1954,-382.0354 190.1088,-391.881 193.1893,-381.7439 186.1954,-382.0354"/>
<text text-anchor="start" x="115" y="-260" font-family="Helvetica,sans-Serif" font-size="10.00" fill="#000000">data_in == 2&#39;b01 &#160;&#160;</text>
</g>
<!-- DETECTED_01110_011101 -->
<g id="node7" class="node">
<title>DETECTED_01110_011101</title>
<polygon fill="transparent" stroke="transparent" stroke-width="2" points="605.5,-52 432.5,-52 432.5,-16 605.5,-16 605.5,-52"/>
<text text-anchor="start" x="443.8106" y="-30.2" font-family="Helvetica,sans-Serif" font-size="12.00" fill="#000000">DETECTED_01110_011101</text>
<path fill="none" stroke="#000000" stroke-width="2" d="M444.8333,-17C444.8333,-17 593.1667,-17 593.1667,-17 598.8333,-17 604.5,-22.6667 604.5,-28.3333 604.5,-28.3333 604.5,-39.6667 604.5,-39.6667 604.5,-45.3333 598.8333,-51 593.1667,-51 593.1667,-51 444.8333,-51 444.8333,-51 439.1667,-51 433.5,-45.3333 433.5,-39.6667 433.5,-39.6667 433.5,-28.3333 433.5,-28.3333 433.5,-22.6667 439.1667,-17 444.8333,-17"/>
</g>
<!-- DETECTED_011&#45;&gt;DETECTED_01110_011101 -->
<g id="edge15" class="edge">
<title>DETECTED_011&#45;&gt;DETECTED_01110_011101</title>
<path fill="none" stroke="#000000" d="M426.41,-97.8015C443.4341,-86.0706 465.7576,-70.688 484.2194,-57.9665"/>
<polygon fill="#000000" stroke="#000000" points="486.4154,-60.7038 492.6639,-52.1476 482.4435,-54.9397 486.4154,-60.7038"/>
<text text-anchor="start" x="467" y="-72" font-family="Helvetica,sans-Serif" font-size="10.00" fill="#000000">data_in == 2&#39;b10 &#160;&#160;</text>
</g>
<!-- DETECTED_0111&#45;&gt;WAIT_FOR_DATA -->
<g id="edge20" class="edge">
<title>DETECTED_0111&#45;&gt;WAIT_FOR_DATA</title>
<path fill="none" stroke="#000000" d="M208.2775,-314.7827C251.2834,-322.8275 303.035,-333.3629 312,-339 337.2113,-354.8525 343.3718,-363.8182 353,-392 358.1728,-407.1408 363.6107,-416.0245 353,-428 311.3908,-474.9616 254.4642,-398.0384 212.855,-445 199.739,-459.8032 213,-469.7221 213,-489.5 213,-557 213,-557 213,-557 213,-562.3878 214.7899,-567.3489 217.6029,-571.8188"/>
<polygon fill="#000000" stroke="#000000" points="215.0533,-574.2315 224.0715,-579.7922 220.4893,-569.8213 215.0533,-574.2315"/>
<text text-anchor="start" x="212" y="-472" font-family="Helvetica,sans-Serif" font-size="10.00" fill="#000000">not (data_in == 2&#39;b00) &#160;&#160;</text>
<text text-anchor="start" x="212" y="-460" font-family="Helvetica,sans-Serif" font-size="10.00" fill="#000000">not (data_in == 2&#39;b01) &#160;&#160;</text>
<text text-anchor="start" x="212" y="-448" font-family="Helvetica,sans-Serif" font-size="10.00" fill="#000000">not (data_in == 2&#39;b10) &#160;&#160;</text>
</g>
<!-- DETECTED_0111&#45;&gt;DETECTED_0 -->
<g id="edge19" class="edge">
<title>DETECTED_0111&#45;&gt;DETECTED_0</title>
<path fill="none" stroke="#000000" d="M208.1192,-315.0677C223.6731,-317.6429 240.4256,-320.1647 256,-322 281.4413,-324.9981 346.9932,-321.0602 371,-330 402.2377,-341.6325 403.1661,-356.6592 431,-375 470.4641,-401.0044 479.5683,-409.8099 523.189,-428 549.4858,-438.9659 567.73,-422.339 585,-445 594.6983,-457.7257 593.4501,-467.4134 585,-481 581.7918,-486.1584 577.5746,-490.5789 572.7926,-494.3626"/>
<polygon fill="#000000" stroke="#000000" points="570.5895,-491.6282 564.29,-500.1468 574.5269,-497.4159 570.5895,-491.6282"/>
<text text-anchor="start" x="523" y="-407" font-family="Helvetica,sans-Serif" font-size="10.00" fill="#000000">data_in == 2&#39;b10 &#160;&#160;</text>
</g>
<!-- DETECTED_0111&#45;&gt;DETECTED_01110_011101 -->
<g id="edge18" class="edge">
<title>DETECTED_0111&#45;&gt;DETECTED_01110_011101</title>
<path fill="none" stroke="#000000" d="M183.2681,-285.8301C189.4135,-281.1451 195.0814,-275.5404 199,-269 228.0718,-220.477 213,-199.0655 213,-142.5 213,-142.5 213,-142.5 213,-75 213,-53.5816 332.2921,-42.9258 421.9104,-37.9427"/>
<polygon fill="#000000" stroke="#000000" points="422.3342,-41.425 432.1312,-37.3915 421.9572,-34.4351 422.3342,-41.425"/>
<text text-anchor="start" x="215" y="-166" font-family="Helvetica,sans-Serif" font-size="10.00" fill="#000000">data_in == 2&#39;b01 &#160;&#160;</text>
</g>
<!-- DETECTED_011100 -->
<g id="node8" class="node">
<title>DETECTED_011100</title>
<polygon fill="transparent" stroke="transparent" stroke-width="2" points="532.5,-240 399.5,-240 399.5,-204 532.5,-204 532.5,-240"/>
<text text-anchor="start" x="410.823" y="-218.2" font-family="Helvetica,sans-Serif" font-size="12.00" fill="#000000">DETECTED_011100</text>
<path fill="none" stroke="#000000" stroke-width="2" d="M411.8333,-205C411.8333,-205 520.1667,-205 520.1667,-205 525.8333,-205 531.5,-210.6667 531.5,-216.3333 531.5,-216.3333 531.5,-227.6667 531.5,-227.6667 531.5,-233.3333 525.8333,-239 520.1667,-239 520.1667,-239 411.8333,-239 411.8333,-239 406.1667,-239 400.5,-233.3333 400.5,-227.6667 400.5,-227.6667 400.5,-216.3333 400.5,-216.3333 400.5,-210.6667 406.1667,-205 411.8333,-205"/>
</g>
<!-- DETECTED_0111&#45;&gt;DETECTED_011100 -->
<g id="edge17" class="edge">
<title>DETECTED_0111&#45;&gt;DETECTED_011100</title>
<path fill="none" stroke="#000000" d="M190.8393,-285.8943C218.3299,-274.4847 251.529,-261.1513 266.189,-257 305.9895,-245.7295 351.3305,-237.4332 388.7493,-231.7545"/>
<polygon fill="#000000" stroke="#000000" points="389.7038,-235.1513 399.0821,-230.222 388.6768,-228.2271 389.7038,-235.1513"/>
<text text-anchor="start" x="266" y="-260" font-family="Helvetica,sans-Serif" font-size="10.00" fill="#000000">data_in == 2&#39;b00 &#160;&#160;</text>
</g>
<!-- DETECTED_01110_011101&#45;&gt;WAIT_FOR_DATA -->
<g id="edge24" class="edge">
<title>DETECTED_01110_011101&#45;&gt;WAIT_FOR_DATA</title>
<path fill="none" stroke="#000000" d="M605.909,-37.0322C699.1471,-41.4807 834,-51.9064 834,-75 834,-248.5 834,-248.5 834,-248.5 834,-312.0322 787,-319.9678 787,-383.5 787,-557 787,-557 787,-557 787,-579.9844 468.9364,-591.8997 323.2923,-596.151"/>
<polygon fill="#000000" stroke="#000000" points="323.0058,-592.6577 313.1106,-596.4439 323.2072,-599.6548 323.0058,-592.6577"/>
<text text-anchor="start" x="826" y="-313" font-family="Helvetica,sans-Serif" font-size="10.00" fill="#000000">not (data_in == 2&#39;b00) &#160;&#160;</text>
<text text-anchor="start" x="826" y="-301" font-family="Helvetica,sans-Serif" font-size="10.00" fill="#000000">not (data_in == 2&#39;b01) &#160;&#160;</text>
<text text-anchor="start" x="826" y="-289" font-family="Helvetica,sans-Serif" font-size="10.00" fill="#000000">not (data_in == 2&#39;b10) &#160;&#160;</text>
</g>
<!-- DETECTED_01110_011101&#45;&gt;DETECTED_0 -->
<g id="edge21" class="edge">
<title>DETECTED_01110_011101&#45;&gt;DETECTED_0</title>
<path fill="none" stroke="#000000" d="M589.2514,-52.2257C596.3442,-57.881 601,-65.291 601,-75 601,-248.5 601,-248.5 601,-248.5 601,-286.5649 647.4592,-263.2801 678,-286 693.2337,-297.3326 688.8961,-307.3716 701,-322 708.015,-330.478 712.6227,-330.0325 719,-339 731.5666,-356.6707 739,-361.8165 739,-383.5 739,-463 739,-463 739,-463 739,-496.9254 640.8614,-509.157 574.2121,-513.5521"/>
<polygon fill="#000000" stroke="#000000" points="573.9798,-510.0597 564.2143,-514.1689 574.4109,-517.0464 573.9798,-510.0597"/>
<text text-anchor="start" x="611" y="-260" font-family="Helvetica,sans-Serif" font-size="10.00" fill="#000000">data_in == 2&#39;b00 &#160;&#160;</text>
</g>
<!-- DETECTED_01110_011101&#45;&gt;DETECTED_0 -->
<g id="edge23" class="edge">
<title>DETECTED_01110_011101&#45;&gt;DETECTED_0</title>
<path fill="none" stroke="#000000" d="M605.517,-43.2248C663.0142,-50.5763 728,-61.8041 728,-75 728,-248.5 728,-248.5 728,-248.5 728,-281.1939 716.0675,-290.55 725,-322 729.3892,-337.4538 763,-367.4349 763,-383.5 763,-463 763,-463 763,-463 763,-485.9438 741.0848,-483.7806 719,-490 671.4076,-503.4027 615.6434,-509.91 574.2999,-513.0619"/>
<polygon fill="#000000" stroke="#000000" points="573.837,-509.586 564.1133,-513.7931 574.3382,-516.5681 573.837,-509.586"/>
<text text-anchor="start" x="727" y="-260" font-family="Helvetica,sans-Serif" font-size="10.00" fill="#000000">data_in == 2&#39;b10 &#160;&#160;</text>
</g>
<!-- DETECTED_01110_011101&#45;&gt;DETECTED_01 -->
<g id="edge22" class="edge">
<title>DETECTED_01110_011101&#45;&gt;DETECTED_01</title>
<path fill="none" stroke="#000000" d="M432.4513,-37.0825C293.9684,-42.5969 38,-55.4357 38,-75 38,-195.5 38,-195.5 38,-195.5 38,-252.9886 19.2223,-287.2244 65,-322 80.1655,-333.5206 133.5966,-327.7995 149,-339 153.1113,-341.9895 165.2133,-363.9996 175.0382,-382.7316"/>
<polygon fill="#000000" stroke="#000000" points="172.0546,-384.5804 179.7735,-391.8377 178.2651,-381.3508 172.0546,-384.5804"/>
<text text-anchor="start" x="38" y="-219" font-family="Helvetica,sans-Serif" font-size="10.00" fill="#000000">data_in == 2&#39;b01 &#160;&#160;</text>
</g>
<!-- DETECTED_011100&#45;&gt;DETECTED_0 -->
<g id="edge25" class="edge">
<title>DETECTED_011100&#45;&gt;DETECTED_0</title>
<path fill="none" stroke="#000000" d="M504.7776,-240.1023C508.1061,-242.4929 511.2475,-245.1246 514,-248 539.2915,-274.4201 526.67,-293.8329 550,-322 558.3067,-332.0289 637.5101,-380.7101 644,-392 665.7474,-429.8318 677.8086,-456.3714 650,-490 640.151,-501.9102 605.885,-508.4153 574.2152,-511.9403"/>
<polygon fill="#000000" stroke="#000000" points="573.6484,-508.48 564.0582,-512.9832 574.3634,-515.4434 573.6484,-508.48"/>
<text text-anchor="start" x="623" y="-354" font-family="Helvetica,sans-Serif" font-size="10.00" fill="#000000">data_in == 2&#39;b00 &#160;&#160;</text>
</g>
<!-- DETECTED_011100&#45;&gt;DETECTED_0 -->
<g id="edge27" class="edge">
<title>DETECTED_011100&#45;&gt;DETECTED_0</title>
<path fill="none" stroke="#000000" d="M474.8561,-240.261C480.4298,-252.7992 487.0993,-270.0035 490,-286 492.8548,-301.7433 492.6231,-306.2165 490,-322 488.691,-329.8767 485.498,-331.1233 484.189,-339 481.5659,-354.7835 473.6122,-362.9945 484.189,-375 523.8185,-419.9828 575.1153,-350.1091 618,-392 635.0413,-408.6464 624.2172,-421.2444 626,-445 627.4967,-464.9439 638.4408,-474.3403 626,-490 619.0776,-498.7135 596.9387,-504.7689 574.1516,-508.8288"/>
<polygon fill="#000000" stroke="#000000" points="573.3342,-505.4164 564.0399,-510.5022 574.4772,-512.3224 573.3342,-505.4164"/>
<text text-anchor="start" x="484" y="-354" font-family="Helvetica,sans-Serif" font-size="10.00" fill="#000000">data_in == 2&#39;b10 &#160;&#160;</text>
</g>
<!-- DETECTED_011100&#45;&gt;DETECTED_01 -->
<g id="edge26" class="edge">
<title>DETECTED_011100&#45;&gt;DETECTED_01</title>
<path fill="none" stroke="#000000" d="M426.3696,-240.099C404.2445,-249.6817 375.979,-261.0732 350,-269 314.8956,-279.7112 292.3163,-257.5013 269.189,-286 259.1069,-298.4238 258.3275,-310.2515 269.189,-322 284.6076,-338.6776 381.1851,-310.6988 371,-331 349.0749,-374.7016 295.5105,-394.2283 252.1331,-402.9531"/>
<polygon fill="#000000" stroke="#000000" points="251.3924,-399.5307 242.2017,-404.8016 252.6734,-406.4125 251.3924,-399.5307"/>
<text text-anchor="start" x="269" y="-301" font-family="Helvetica,sans-Serif" font-size="10.00" fill="#000000">data_in == 2&#39;b01 &#160;&#160;</text>
</g>
<!-- DETECTED_011100&#45;&gt;DETECTED_011 -->
<g id="edge28" class="edge">
<title>DETECTED_011100&#45;&gt;DETECTED_011</title>
<path fill="none" stroke="#000000" d="M454.469,-203.8578C451.041,-198.4423 447.2855,-192.4874 443.855,-187 434.7443,-172.4269 424.6605,-156.1144 416.4616,-142.8036"/>
<polygon fill="#000000" stroke="#000000" points="419.3436,-140.8086 411.1218,-134.1263 413.382,-144.4773 419.3436,-140.8086"/>
<text text-anchor="start" x="443" y="-178" font-family="Helvetica,sans-Serif" font-size="10.00" fill="#000000">not (data_in == 2&#39;b00) &#160;&#160;</text>
<text text-anchor="start" x="443" y="-166" font-family="Helvetica,sans-Serif" font-size="10.00" fill="#000000">not (data_in == 2&#39;b01) &#160;&#160;</text>
<text text-anchor="start" x="443" y="-154" font-family="Helvetica,sans-Serif" font-size="10.00" fill="#000000">not (data_in == 2&#39;b10) &#160;&#160;</text>
</g>
</g>
</svg>
